<svg width="26" height="24" viewBox="0 0 26 24" fill="none" xmlns="http://www.w3.org/2000/svg">
<path d="M15.4069 1.00024C14.584 1.11692 13.8663 1.62296 12.4322 2.63631L10.7792 3.80565C9.65969 4.59705 9.09993 4.99275 8.47078 5.15002C8.24048 5.20832 8.0053 5.2423 7.76868 5.25148C7.12279 5.27431 6.48527 5.04855 5.20904 4.59705C3.53691 4.00604 2.70084 3.71053 2.06452 4.01111C1.83903 4.11749 1.63665 4.27206 1.47006 4.46515C1 5.01177 1 5.94522 1 7.81464V12.9702M22.5296 15.2913V16.1598C22.5296 18.0293 22.5296 18.964 22.0596 19.5081C21.8932 19.7021 21.6908 19.8575 21.4651 19.9646C20.8288 20.264 19.9927 19.9684 18.3206 19.3774C17.0444 18.9259 16.4068 18.7002 15.761 18.7243C15.524 18.7325 15.2884 18.7657 15.0577 18.8232C14.4297 18.9817 13.8699 19.3774 12.7504 20.1676L11.0974 21.3369C9.66209 22.3515 8.94563 22.8588 8.12272 22.9742C7.29981 23.0922 6.48168 22.803 4.84663 22.2247L3.45318 21.7326C2.26905 21.3141 1.67699 21.1048 1.33849 20.6064C1.01794 20.1346 1.0012 19.5157 1 18.3286M15.3531 18.3286V16.6875M8.17654 22.7675V18.3286M8.17654 5.64591V13.2555" stroke="#26448C" stroke-width="2" stroke-linecap="round"/>
<path d="M19.7879 8.63434C20.7753 8.63434 21.5758 7.82076 21.5758 6.81717C21.5758 5.81357 20.7753 5 19.7879 5C18.8005 5 18 5.81357 18 6.81717C18 7.82076 18.8005 8.63434 19.7879 8.63434Z" stroke="#26448C" stroke-width="2" stroke-linecap="round" stroke-linejoin="round"/>
<path d="M24.5355 6.84603C24.5355 9.8704 21.2344 13.0202 20.1259 13.9929C20.0226 14.0719 19.8969 14.1145 19.7677 14.1145C19.6385 14.1145 19.5128 14.0719 19.4096 13.9929C18.3011 13.0202 15 9.8704 15 6.84603C15 5.56084 15.5023 4.3283 16.3964 3.41954C17.2906 2.51078 18.5033 2.00024 19.7677 2.00024C21.0322 2.00024 22.2449 2.51078 23.139 3.41954C24.0332 4.3283 24.5355 5.56084 24.5355 6.84603Z" stroke="#26448C" stroke-width="2" stroke-linecap="round" stroke-linejoin="round"/>
</svg>
